<svg width="650" height="200" viewBox="0 0 650 200" fill="none" xmlns="http://www.w3.org/2000/svg">
<g clip-path="url(#clip0)">
<rect width="650" height="200" fill="white"/>
<path d="M208.8 101.4C208.8 99.6667 208.733 97.6667 208.6 95.4C208.6 93 208.067 91.0667 207 89.6L205.6 87.8C204.667 87.6667 203.733 87.6 202.8 87.6C201.867 87.6 200.933 87.6 200 87.6C196.667 87.6 193.533 87.8667 190.6 88.4C187.667 88.8 184.533 89 181.2 89C179.333 89 177.133 88.8667 174.6 88.6C172.2 88.2 170.133 88 168.4 88C164.4 88 161.8 88.6667 160.6 90C160.2 89.7333 159.4 89.6 158.2 89.6C157.667 89.6 157.067 89.6667 156.4 89.8C155.867 89.8 155.267 89.8 154.6 89.8C153.8 89.8 153.2 89.6667 152.8 89.4C152.8 89.5333 152.733 89.9333 152.6 90.6C152.467 91.1333 152.067 91.4 151.4 91.4C151.267 91.4 151.133 91.3333 151 91.2C151 91.7333 150.933 92.0667 150.8 92.2C150.8 92.2 150.733 92.2667 150.6 92.4C150.6 92.4 150.533 92.6667 150.4 93.2C150.4 93.6 150.4 94.3333 150.4 95.4C154.267 96.0667 157.467 96.8667 160 97.8C162.667 98.7333 164.267 99.3333 164.8 99.6H165C165.133 99.6 165.2 99.6 165.2 99.6C165.2 99.4667 165.333 99.4 165.6 99.4C165.867 99.4 166.133 99.4 166.4 99.4C166.8 99.4 167.2 99.4667 167.6 99.6V103.6C167.6 103.733 167.533 103.933 167.4 104.2C167.4 104.467 167.4 104.8 167.4 105.2V108C167 108.533 166.733 108.8 166.6 108.8L165.8 109.6C162.6 110.133 159.333 110.533 156 110.8C152.667 110.933 149.4 111.133 146.2 111.4C145.8 111.8 145.133 112 144.2 112C141.667 112 139.333 111.667 137.2 111C135.867 110.733 134.733 110.467 133.8 110.2C132.467 110.2 131.333 109.733 130.4 108.8C129.6 107.867 129.2 106.267 129.2 104C129.2 100.533 129.467 97.8667 130 96C130.533 94 131.267 92.3333 132.2 91C133.267 89.5333 134.4 88.0667 135.6 86.6C136.933 85.1333 138.333 83.0667 139.8 80.4C139.8 80.1333 139.8 79.9333 139.8 79.8C139.8 79.5333 139.8 79.3333 139.8 79.2V79C140.067 78.8667 140.533 78.4 141.2 77.6L143.8 74.8C144.2 74.8 144.533 74.8 144.8 74.8C145.2 74.6667 145.6 74.6 146 74.6L147 74.2C147.933 73.8 148.8 73.2 149.6 72.4C150.4 71.6 151.267 70.7333 152.2 69.8C153.133 68.7333 154.133 67.7333 155.2 66.8C156.4 65.8667 157.667 65.2 159 64.8C159.667 64.6667 160.867 64 162.6 62.8C164.333 61.6 166.133 61 168 61C168.267 61 168.467 61.0667 168.6 61.2C168.733 61.2 168.867 61.2 169 61.2C170.333 61.2 171.533 61.1333 172.6 61C173.8 60.7333 174.933 60.6 176 60.6C178 60.6 179.933 60.6667 181.8 60.8C183.667 60.9333 185.6 61 187.6 61C188.267 61 189 61 189.8 61C190.6 60.8667 191.467 60.7333 192.4 60.6L195.8 57C195.8 56.6 195.733 56.2 195.6 55.8C195.6 55.2667 195.6 54.8667 195.6 54.6V51.4C195.6 51 195.533 50.4 195.4 49.6C195.4 48.6667 195.4 47.5333 195.4 46.2C194.467 45.8 193.8 45.4 193.4 45C193 44.6 192.733 44.2667 192.6 44C189.667 44.4 187 44.6667 184.6 44.8C182.2 44.8 179.867 44.8 177.6 44.8C175.333 44.8 173.067 44.8 170.8 44.8C168.533 44.8 166.067 44.9333 163.4 45.2L161.8 47H159.4C159.133 47 159 46.9333 159 46.8C156.6 47.4667 154.533 47.8667 152.8 48C151.067 48.1333 148.933 48.3333 146.4 48.6L134.6 55.6C133.267 56 132.2 56.4667 131.4 57C130.6 57.4 129.867 58 129.2 58.8C128.533 59.4667 127.8 60.3333 127 61.4C126.2 62.3333 125.133 63.4667 123.8 64.8L107.8 84C107.533 86 107.267 87.8 107 89.4C106.733 91 106.533 92.5333 106.4 94L105 103.8V104.6C105 107.133 105.4 109.667 106.2 112.2C107.133 114.733 108.133 117.067 109.2 119.2C110.4 121.333 111.6 123.2 112.8 124.8C114.133 126.267 115.333 127.4 116.4 128.2C118.133 129.533 120.467 131 123.4 132.6C126.333 134.067 129.267 134.8 132.2 134.8C133.933 134.8 136.4 134.4 139.6 133.6C142.8 132.8 145.933 132.267 149 132L155 131.4C155.667 130.867 156.667 130.333 158 129.8C159.467 129.267 160.867 128.4 162.2 127.2C162.733 127.733 163.2 128.133 163.6 128.4C164.133 128.533 164.533 128.6 164.8 128.6C164.8 131.133 164.467 133.333 163.8 135.2C163.267 137.067 163 139.467 163 142.4C163.667 142.933 164.2 143.333 164.6 143.6C165 144 165.733 144.467 166.8 145C170.933 144.867 174.867 144.6 178.6 144.2C182.467 143.8 186.467 143.267 190.6 142.6L191.4 140C191.4 139.2 191.667 138.267 192.2 137.2C192.2 134.533 191.933 132.2 191.4 130.2C191 128.067 190.533 126 190 124C189.467 122 189 120 188.6 118C188.2 115.867 188 113.533 188 111C188 111 188 110.533 188 109.6C188.133 108.533 188.2 107.4 188.2 106.2C188.333 104.867 188.533 103.733 188.8 102.8C189.2 101.733 189.6 101.2 190 101.2L190.8 100.4C192.267 100.933 193.733 101.2 195.2 101.2C196.667 101.067 198.2 101.133 199.8 101.4C201.267 101 202.533 100.8 203.6 100.8C204.667 100.8 205.467 100.933 206 101.2C206.667 101.467 207.333 101.6 208 101.6C208.4 101.6 208.667 101.533 208.8 101.4ZM198.531 89C198.131 91.4 197.865 93.6667 197.731 95.8C197.731 97.9333 197.731 99.8667 197.731 101.6C197.731 104.8 198.198 107.6 199.131 110L201.131 112.6L222.331 118.8H227.131C227.665 118.667 228.265 118.467 228.931 118.2C229.598 117.933 230.331 117.533 231.131 117L247.931 111.4C248.865 111 250.198 110.333 251.931 109.4C253.798 108.467 255.531 107.4 257.131 106.2C258.865 104.867 260.331 103.4 261.531 101.8C262.731 100.2 263.331 98.5333 263.331 96.8C263.331 90.4 261.665 84.6 258.331 79.4C255.131 74.2 250.531 70.2 244.531 67.4H244.131C243.598 67.4 242.665 67.4667 241.331 67.6C239.998 67.7333 238.798 67.8 237.731 67.8C236.798 67.8 235.931 67.6667 235.131 67.4C234.465 67.1333 234.131 66.7333 234.131 66.2L219.931 68.4C217.531 69.0667 215.131 70 212.731 71.2C210.331 72.4 208.131 73.8667 206.131 75.6C204.131 77.2 202.465 79.1333 201.131 81.4C199.798 83.5333 198.931 86.0667 198.531 89ZM235.531 79.8C237.131 80.3333 238.865 80.8 240.731 81.2C242.598 81.6 244.331 82.2 245.931 83C247.531 83.6667 248.931 84.6 250.131 85.8C251.465 87 252.465 88.8 253.131 91.2L247.931 98.8L226.531 103.2H223.731L218.531 98.6L219.531 86.6C220.331 86.2 221.131 85.6 221.931 84.8C222.731 84 223.598 83.2 224.531 82.4C225.598 81.4667 226.731 80.7333 227.931 80.2C229.265 79.5333 230.665 79.2 232.131 79.2C233.065 79.2 234.198 79.4 235.531 79.8ZM332.723 98.8C333.923 98.4 335.523 97.6 337.523 96.4C339.657 95.0667 341.657 93.6 343.523 92C345.523 90.4 347.19 88.6667 348.523 86.8C349.857 84.9333 350.523 83 350.523 81C350.523 77 349.857 72.9333 348.523 68.8C347.19 64.5333 345.19 60.7333 342.523 57.4C339.857 54.0667 336.523 51.2667 332.523 49C328.523 46.7333 323.857 45.4667 318.523 45.2C316.923 45.0667 315.39 44.8667 313.923 44.6C312.59 44.2 311.857 43.4667 311.723 42.4L293.723 43.8H290.523L289.123 45.6L280.923 44L277.323 47V100.8L273.323 101.4L274.723 101.8V137L275.523 141.6H278.523L280.723 140H296.323L300.123 136.6L299.523 127.4L300.523 113.8L299.723 110.2C301.323 109.933 302.723 109.6 303.923 109.2C305.123 108.8 306.457 108.2 307.923 107.4L314.323 105.4C315.257 106.733 316.123 107.733 316.923 108.4C317.857 108.933 318.657 109.533 319.323 110.2C319.99 111.8 320.923 113.067 322.123 114C323.323 114.8 323.923 115.933 323.923 117.4C325.79 119.533 327.257 121.4 328.323 123C329.39 124.467 330.39 125.933 331.323 127.4C332.39 128.733 333.457 130.133 334.523 131.6C335.723 133.067 337.19 134.733 338.923 136.6C338.79 137.933 339.257 138.933 340.323 139.6C341.523 140.4 342.59 141.133 343.523 141.8L347.323 143.8L354.323 140.4C356.99 139.067 359.523 137.933 361.923 137C364.457 136.067 365.723 135.133 365.723 134.2C365.723 133.533 365.323 132.733 364.523 131.8C363.723 130.733 362.723 129.667 361.523 128.6C360.457 127.4 359.323 126.267 358.123 125.2C357.057 124.133 356.123 123.133 355.323 122.2C350.923 118.2 346.857 114.333 343.123 110.6C339.523 106.733 336.057 102.8 332.723 98.8ZM296.923 61C297.857 60.8667 298.79 60.8 299.723 60.8C300.657 60.6667 301.523 60.6 302.323 60.6C303.923 60.6 305.457 60.8 306.923 61.2C308.523 61.4667 310.523 61.8667 312.923 62.4C315.057 63.0667 317.323 63.4667 319.723 63.6C322.123 63.7333 324.39 64.0667 326.523 64.6C328.79 65.1333 330.79 66.0667 332.523 67.4C334.257 68.6 335.523 70.7333 336.323 73.8L329.123 83.8L301.523 89.2H298.523V84L296.923 74.6V61ZM388.339 60.2L381.539 57.4L372.739 55.8L366.339 54.4L361.539 56V75L362.139 77.4L374.139 75.4L383.539 77.2L386.339 75.2L388.339 60.2ZM389.739 126.8L386.339 124L387.539 120.4V111L386.139 106V92.2L383.739 89.6L379.539 89.4L377.939 90.2L369.939 89.6L366.539 91.2L362.339 139.6L364.339 141.8H367.939L370.339 141H385.739L389.539 139.2L388.539 134.4L389.739 126.8ZM481.061 91L480.061 82L476.061 71.2L475.661 68.8L474.261 66.6L461.261 54.8L458.661 53L430.061 46.4H408.461L405.061 50V97V107.4V137L410.661 141L425.661 139.4L454.261 128.4L468.861 112.8L469.661 110.6L471.861 110.2L481.061 91ZM459.461 76.2V100L457.461 106.4L453.261 112.6L447.861 118L437.461 120L429.061 122.6L429.661 112V70L431.261 62L446.261 63.4L454.661 71.2L459.461 76.2ZM547.655 130.2L547.055 129.4C547.055 128.733 546.855 128.133 546.455 127.6C546.055 126.933 545.721 126.2 545.455 125.4C544.655 125.4 543.921 125.6 543.255 126C542.588 126.267 541.855 126.6 541.055 127C540.388 127.267 539.521 127.6 538.455 128C537.521 128.267 536.321 128.4 534.855 128.4H533.855C532.255 128.533 530.855 128.6 529.655 128.6C528.455 128.6 527.321 128.667 526.255 128.8C525.188 128.8 524.121 128.867 523.055 129C521.988 129 520.721 129 519.255 129C516.721 128.6 515.055 128.333 514.255 128.2C513.588 127.933 513.255 127.8 513.255 127.8C513.255 127.8 513.321 127.8 513.455 127.8C513.588 127.8 513.388 127.667 512.855 127.4C512.721 127.533 512.588 127.6 512.455 127.6C512.321 127.6 512.188 127.667 512.055 127.8C512.055 127.8 511.921 127.8 511.655 127.8C510.188 127.267 508.988 126.867 508.055 126.6C507.255 126.333 506.855 125.867 506.855 125.2C506.855 124.667 506.188 123.733 504.855 122.4C503.655 121.067 503.055 119.533 503.055 117.8C503.055 115.8 503.255 113.267 503.655 110.2C504.055 107 504.855 104.467 506.055 102.6C507.121 101.933 508.988 101.2 511.655 100.4C514.321 99.4667 516.988 99 519.655 99C521.255 99 522.455 99.2667 523.255 99.8C524.188 100.2 524.921 100.733 525.455 101.4C525.988 102.067 526.255 102.8 526.255 103.6C526.388 104.267 526.455 104.933 526.455 105.6C526.455 106.533 526.121 107.2 525.455 107.6C524.788 108 523.988 108.267 523.055 108.4C522.121 108.533 521.188 108.6 520.255 108.6C519.321 108.6 518.521 108.667 517.855 108.8C515.188 109.6 512.988 110.133 511.255 110.4C509.655 110.667 508.721 110.8 508.455 110.8C509.121 111.067 509.588 111.6 509.855 112.4C510.121 113.2 510.321 114.067 510.455 115C510.588 115.8 510.655 116.6 510.655 117.4C510.655 118.067 510.721 118.4 510.855 118.4C515.521 118.4 519.388 118.2 522.455 117.8C525.521 117.4 528.055 116.933 530.055 116.4C532.055 115.733 533.655 115.2 534.855 114.8C536.055 114.267 537.255 113.933 538.455 113.8C538.988 112.467 539.588 111.667 540.255 111.4C540.921 111 541.655 110.333 542.455 109.4C542.188 107.533 541.721 105.667 541.055 103.8C540.521 101.8 539.921 100 539.255 98.4C538.588 96.6667 537.921 95.2 537.255 94C536.721 92.8 536.455 92.0667 536.455 91.8C535.521 91.8 534.721 91.6 534.055 91.2C533.521 90.8 533.055 90.4 532.655 90C532.388 89.6 532.188 89.2 532.055 88.8C531.921 88.4 531.788 88.2 531.655 88.2C530.188 88.2 529.055 87.8667 528.255 87.2C527.721 86.9333 527.321 86.6 527.055 86.2C524.921 86.2 523.255 85.9333 522.055 85.4C520.855 84.8667 519.521 84.6 518.055 84.6C514.721 85.8 511.121 86.6667 507.255 87.2C503.521 87.7333 500.188 88.8667 497.255 90.6C495.655 91.9333 494.188 93.2 492.855 94.4C491.521 95.6 490.321 96.9333 489.255 98.4C488.188 99.8667 487.055 101.467 485.855 103.2C484.655 104.933 483.455 107 482.255 109.4C481.588 110.467 481.121 111.533 480.855 112.6C480.721 113.667 480.588 114.733 480.455 115.8C480.455 117.8 480.521 119.8 480.655 121.8C480.921 123.667 481.855 125.8 483.455 128.2C484.121 128.733 484.655 129.333 485.055 130C485.588 130.667 485.855 131 485.855 131L487.055 132C487.321 132 487.521 132.4 487.655 133.2C487.921 133.867 488.121 134.2 488.255 134.2H491.855C493.455 135.133 494.721 135.933 495.655 136.6C496.588 137.133 497.455 137.533 498.255 137.8C499.055 137.933 499.921 138.067 500.855 138.2C501.788 138.333 502.988 138.4 504.455 138.4C505.255 138.4 506.055 138.4 506.855 138.4C507.788 138.267 508.721 138.2 509.655 138.2C510.455 138.2 511.321 138.2 512.255 138.2C513.188 138.2 514.321 138.333 515.655 138.6C518.588 138.6 520.988 138.467 522.855 138.2C524.855 137.8 526.788 137.333 528.655 136.8C530.655 136.267 532.721 135.8 534.855 135.4C537.121 135 539.855 134.733 543.055 134.6C543.855 134.333 544.788 133.733 545.855 132.8C547.055 131.733 547.655 131.067 547.655 130.8C547.655 130.4 547.321 130.2 546.655 130.2H547.655Z" fill="black"/>
<path d="M202.206 134.672L218.174 130.709L223.733 126.721L233.561 124.903L242.651 123.02L245.525 124.155L248.869 119.986L259.514 117.345L269 111L244.442 119.594L234.693 120.522L217.83 126.198L209.32 129.925L201.204 129.205L185 135.835L202.206 134.672Z" fill="black" stroke="black" stroke-width="3"/>
<path d="M479.029 83.6196L493.146 81.1367L498.214 78.01L506.867 77.0203L514.882 75.93L517.313 77.0857L520.467 73.6704L529.878 72.0151L538.5 67.0795L516.641 73.0661L508.11 73.2894L493.113 77.2042L485.494 79.928L478.48 78.82L464 83.602L479.029 83.6196Z" fill="black" stroke="black" stroke-width="3"/>
</g>
<defs>
<clipPath id="clip0">
<rect width="650" height="200" fill="white"/>
</clipPath>
</defs>
</svg>
